<?xml version="1.0" encoding="utf-8"?>
<!-- Generator: Adobe Illustrator 23.0.0, SVG Export Plug-In . SVG Version: 6.00 Build 0)  -->
<svg version="1.1" id="Layer_1" xmlns="http://www.w3.org/2000/svg" xmlns:xlink="http://www.w3.org/1999/xlink" x="0px" y="0px"
	 viewBox="0 0 588.47 180" style="enable-background:new 0 0 588.47 180;" xml:space="preserve">
<style type="text/css">
	.st0{fill:none;}
	.st1{fill:#FFFFFF;}
	.st2{fill:none;stroke:#FFFFFF;stroke-width:3.3628;stroke-linecap:round;stroke-miterlimit:10;}
</style>
<g>
	<path class="st0" d="M62.48,67.06c-7.33,0-13.44,2.55-18.32,7.65c-4.88,5.1-7.32,11.63-7.32,19.58c0,8.19,2.41,14.82,7.23,19.89
		c4.82,5.07,10.93,7.61,18.32,7.61c7.39,0,13.54-2.57,18.45-7.69c4.91-5.13,7.36-11.73,7.36-19.8c0-8.07-2.41-14.63-7.23-19.67
		C76.15,69.58,69.99,67.06,62.48,67.06z"/>
	<path class="st1" d="M100.18,99.65c-6.52,0-11.8-5.28-11.8-11.8V52.26c-0.42-0.25-0.82-0.52-1.26-0.77
		c-7.81-4.44-16.15-6.66-25.03-6.66c-12.28,0-23.14,4.27-32.6,12.8c-10.78,9.8-16.17,22.05-16.17,36.75
		c0,13.72,4.77,25.38,14.31,34.97c9.54,9.6,21.05,14.4,34.54,14.4c9.17,0,17.55-2.18,25.16-6.53c7.61-4.35,13.62-10.39,18.03-18.12
		c4.41-7.72,6.61-16.02,6.61-24.9c0-1.46-0.07-2.9-0.19-4.33C110.83,95.43,106,99.65,100.18,99.65z M80.84,114.09
		c-4.91,5.13-11.06,7.69-18.45,7.69c-7.39,0-13.5-2.54-18.32-7.61c-4.82-5.07-7.23-11.7-7.23-19.89c0-7.95,2.44-14.48,7.32-19.58
		c4.88-5.1,10.99-7.65,18.32-7.65c7.51,0,13.67,2.52,18.49,7.56c4.82,5.04,7.23,11.6,7.23,19.67
		C88.2,102.36,85.75,108.96,80.84,114.09z"/>
	<path class="st1" d="M89.38,53.26v33.59c0,6.52,4.28,11.8,10.8,11.8c5.83,0,10.65-4.22,11.62-9.78
		c-0.61-7.19-2.73-12.96-6.39-19.31C101.27,62.37,96.58,57.62,89.38,53.26z"/>
	<path class="st1" d="M127.13,80.35c6.52,0,11.8,5.28,11.8,11.8v35.59c0.42,0.25,0.82,0.52,1.26,0.77
		c7.81,4.44,16.15,6.66,25.03,6.66c12.28,0,23.14-4.27,32.6-12.8c10.78-9.8,16.17-22.05,16.17-36.75c0-13.72-4.77-25.38-14.31-34.97
		c-9.54-9.6-21.05-14.4-34.54-14.4c-9.17,0-17.55,2.18-25.16,6.53c-7.61,4.35-13.62,10.39-18.03,18.12
		c-4.41,7.72-6.61,16.02-6.61,24.9c0,1.46,0.07,2.9,0.19,4.33C116.48,84.57,121.3,80.35,127.13,80.35z M146.47,65.91
		c4.91-5.13,11.06-7.69,18.45-7.69c7.39,0,13.5,2.54,18.32,7.61c4.82,5.07,7.23,11.7,7.23,19.89c0,7.95-2.44,14.48-7.32,19.58
		c-4.88,5.1-10.99,7.65-18.32,7.65c-7.51,0-13.67-2.52-18.49-7.56c-4.82-5.04-7.23-11.6-7.23-19.67
		C139.1,77.64,141.56,71.04,146.47,65.91z"/>
	<path class="st1" d="M118.2,110.07c-2.97-6.7-4.4-16.4-4.24-23.61l2.57-24.21l4.05-38.19c0.69-6.48-4.01-12.29-10.49-12.98
		c-6.48-0.69-12.29,4.01-12.98,10.49l-3.11,29.35c6.7,5.09,11.75,11.42,15.11,19.01c2.97,6.7,3.79,15.12,4.24,23.65v0l-6.62,62.36
		c-0.69,6.48,4.01,12.29,10.49,12.98c6.48,0.69,12.29-4.01,12.98-10.49l3.11-29.35C126.61,123.98,121.56,117.66,118.2,110.07z"/>
	<path class="st1" d="M137.93,126.74V93.15c0-6.52-4.28-11.8-10.8-11.8c-5.83,0-10.65,4.22-11.62,9.78
		c0.61,7.19,2.73,12.96,6.39,19.31C126.04,117.63,130.73,122.38,137.93,126.74z"/>
	<path class="st1" d="M300.18,73.52h-21.42V52.1c0-6.73-5.46-12.19-12.19-12.19c-6.73,0-12.19,5.46-12.19,12.19v21.42h-21.42
		c-6.73,0-12.19,5.46-12.19,12.19c0,6.73,5.46,12.19,12.19,12.19h21.42v21.42c0,6.73,5.46,12.19,12.19,12.19
		c6.73,0,12.19-5.46,12.19-12.19V97.89h21.42c6.73,0,12.19-5.46,12.19-12.19C312.37,78.98,306.91,73.52,300.18,73.52z"/>
	<g>
		<g>
			<path class="st1" d="M362.74,87.33c-2.48,0-4.54-0.86-6.29-2.62c-1.76-1.77-2.61-3.85-2.61-6.38c0-2.71,0.96-4.9,2.95-6.7
				c1.74-1.57,3.68-2.33,5.93-2.33c1.61,0,3.15,0.41,4.57,1.22c0.05,0.03,0.23,0.14,0.23,0.14l1.05,0.64v-8.65h3.25v14.47h-0.03
				l0.02,0.72c0.01,0.15,0.01,0.31,0.01,0.46c0,1.61-0.41,3.14-1.21,4.55c-0.8,1.4-1.9,2.51-3.28,3.3
				C365.95,86.93,364.41,87.33,362.74,87.33z M362.8,72.28c-1.63,0-3.01,0.58-4.09,1.71c-1.08,1.13-1.63,2.58-1.63,4.32
				c0,1.78,0.54,3.26,1.61,4.38c1.08,1.13,2.46,1.71,4.1,1.71c1.64,0,3.02-0.58,4.12-1.72c1.09-1.14,1.64-2.6,1.64-4.36
				s-0.54-3.22-1.61-4.34C365.85,72.85,364.46,72.28,362.8,72.28z"/>
			<polygon class="st1" points="402.4,82.85 402.4,76.5 396.05,76.5 396.05,73.64 402.4,73.64 402.4,67.28 405.26,67.28 
				405.26,73.64 411.61,73.64 411.61,76.5 405.26,76.5 405.26,82.85 			"/>
			<path class="st1" d="M375.03,112.95V96.71h2.59v0.79l1.31,0.29c0.37-0.8,0.87-1.4,1.47-1.81c0.6-0.4,1.24-0.6,1.96-0.6
				c0.32,0,0.66,0.06,1.01,0.17l-0.97,2.68c-0.35-0.12-0.66-0.18-0.94-0.18c-0.67,0-1.64,0.29-2.41,1.68
				c-0.56,1-0.83,2.81-0.83,5.53l0.02,0.91v6.76H375.03z"/>
			<path class="st1" d="M414.82,113.42c-2.48,0-4.54-0.86-6.29-2.62c-1.76-1.77-2.61-3.85-2.61-6.38c0-2.71,0.96-4.9,2.95-6.7
				c1.74-1.57,3.68-2.33,5.93-2.33c1.61,0,3.15,0.41,4.57,1.22c0.04,0.02,1.28,0.77,1.28,0.77v-8.64h3.25v14.47h-0.03l0.02,0.72
				c0.01,0.15,0.02,0.31,0.02,0.46c0,1.61-0.41,3.14-1.21,4.55c-0.8,1.4-1.9,2.51-3.28,3.3
				C418.04,113.02,416.49,113.42,414.82,113.42z M414.88,98.37c-1.63,0-3.01,0.58-4.09,1.71c-1.08,1.13-1.63,2.58-1.63,4.32
				c0,1.78,0.54,3.26,1.61,4.38c1.08,1.13,2.46,1.71,4.1,1.71c1.64,0,3.02-0.58,4.12-1.72c1.09-1.14,1.64-2.6,1.64-4.36
				c0-1.76-0.54-3.22-1.61-4.34C417.93,98.94,416.54,98.37,414.88,98.37z"/>
			<path class="st1" d="M393.84,113.42c-2.48,0-4.54-0.86-6.29-2.62c-1.76-1.77-2.61-3.85-2.61-6.38c0-2.71,0.96-4.9,2.95-6.7
				c1.74-1.57,3.68-2.33,5.93-2.33c1.61,0,3.15,0.41,4.57,1.22c1.42,0.81,2.54,1.91,3.33,3.29c0.8,1.38,1.2,2.89,1.2,4.49
				c0,1.61-0.41,3.14-1.21,4.55c-0.8,1.4-1.9,2.51-3.28,3.3C397.05,113.02,395.51,113.42,393.84,113.42z M393.9,98.37
				c-1.63,0-3.01,0.58-4.09,1.71c-1.08,1.13-1.63,2.58-1.63,4.32c0,1.78,0.54,3.26,1.61,4.38c1.08,1.13,2.46,1.71,4.1,1.71
				c1.64,0,3.02-0.58,4.12-1.72c1.09-1.14,1.64-2.6,1.64-4.36c0-1.76-0.54-3.22-1.61-4.34C396.95,98.94,395.56,98.37,393.9,98.37z"
				/>
			<path class="st1" d="M374.78,94.15V79.69h0.04l-0.02-0.73c-0.01-0.15-0.01-0.31-0.01-0.46c0-1.61,0.41-3.14,1.21-4.55
				c0.8-1.4,1.9-2.51,3.28-3.3c1.38-0.79,2.93-1.19,4.6-1.19c2.48,0,4.54,0.86,6.29,2.62c1.76,1.77,2.61,3.85,2.61,6.38
				c0,2.71-0.96,4.9-2.95,6.7c-1.74,1.57-3.68,2.33-5.93,2.33c-1.61,0-3.15-0.41-4.57-1.22c-0.04-0.02-0.23-0.14-0.23-0.14
				l-1.05-0.63v8.64H374.78z M383.82,72.4c-1.64,0-3.02,0.58-4.12,1.72c-1.09,1.14-1.64,2.6-1.64,4.36c0,1.76,0.54,3.22,1.61,4.34
				c1.08,1.13,2.47,1.7,4.13,1.7c1.63,0,3.01-0.58,4.09-1.71c1.08-1.13,1.63-2.58,1.63-4.32c0-1.78-0.54-3.26-1.61-4.38
				C386.84,72.97,385.46,72.4,383.82,72.4z"/>
			<path class="st1" d="M353.21,120.25v-14.47h0.03l-0.02-0.72c-0.01-0.15-0.02-0.31-0.02-0.46c0-1.61,0.41-3.14,1.21-4.55
				c0.8-1.4,1.9-2.51,3.28-3.3c1.38-0.79,2.93-1.19,4.6-1.19c2.48,0,4.54,0.86,6.29,2.62c1.76,1.77,2.61,3.85,2.61,6.38
				c0,2.71-0.96,4.9-2.95,6.7c-1.74,1.57-3.68,2.33-5.93,2.33c-1.61,0-3.15-0.41-4.57-1.22c-0.04-0.02-0.23-0.14-0.23-0.14
				l-1.05-0.63v8.64H353.21z M362.25,98.49c-1.64,0-3.02,0.58-4.12,1.72c-1.09,1.14-1.64,2.6-1.64,4.36s0.54,3.22,1.61,4.34
				c1.08,1.13,2.47,1.7,4.13,1.7c1.63,0,3.01-0.58,4.09-1.71c1.08-1.13,1.63-2.58,1.63-4.32c0-1.78-0.54-3.26-1.61-4.38
				C365.27,99.07,363.89,98.49,362.25,98.49z"/>
			<path class="st1" d="M434.92,113.42c-1.87,0-3.38-0.41-4.51-1.23c-1.14-0.82-1.92-1.95-2.39-3.43c-0.34-1.05-0.51-3.03-0.51-5.9
				v-7h3.3v8.2c0,1.83,0.13,3.08,0.4,3.84c0.29,0.81,0.76,1.45,1.4,1.9c0.64,0.46,1.43,0.69,2.35,0.69c0.91,0,1.7-0.23,2.35-0.67
				c0.66-0.45,1.15-1.11,1.46-1.95c0.14-0.39,0.33-1.2,0.33-3.65v-8.36h3.25V103c0,3.12-0.24,5.25-0.71,6.35
				c-0.56,1.31-1.4,2.33-2.49,3.03C438.07,113.07,436.65,113.42,434.92,113.42z"/>
			<path class="st1" d="M532.81,113.42v-8.2c0-1.83-0.13-3.08-0.4-3.84c-0.29-0.81-0.76-1.45-1.4-1.9
				c-0.64-0.46-1.43-0.69-2.35-0.69c-0.91,0-1.7,0.23-2.35,0.67c-0.66,0.45-1.15,1.11-1.46,1.95c-0.14,0.39-0.33,1.2-0.33,3.65v8.36
				h-3.25v-7.13c0-3.12,0.24-5.25,0.71-6.35c0.56-1.31,1.4-2.33,2.49-3.03c1.09-0.7,2.52-1.05,4.24-1.05c1.87,0,3.38,0.41,4.51,1.23
				c1.14,0.82,1.92,1.95,2.39,3.43c0.34,1.05,0.51,3.03,0.51,5.9v7H532.81z"/>
			<path class="st1" d="M457.19,113.42c-3.04,0-5.43-0.9-7.13-2.67c-1.73-1.81-2.57-3.86-2.57-6.28c0-1.65,0.42-3.2,1.24-4.59
				c0.82-1.39,1.99-2.5,3.48-3.29c1.49-0.8,3.19-1.21,5.04-1.21c1.72,0,3.27,0.34,4.63,1.02c1.12,0.56,2.08,1.32,2.86,2.28
				l-2.71,1.49c-0.67-0.63-1.34-1.09-2-1.36c-0.79-0.33-1.72-0.49-2.75-0.49c-1.91,0-3.49,0.59-4.68,1.74
				c-1.21,1.16-1.82,2.67-1.82,4.47c0,1.76,0.59,3.22,1.76,4.34c1.16,1.12,2.69,1.68,4.54,1.68c2.04,0,3.7-0.64,4.95-1.9l2.53,1.73
				C462.74,112.43,460.32,113.42,457.19,113.42z"/>
			<path class="st1" d="M477.75,113.42c-3.04,0-5.43-0.9-7.13-2.67c-1.73-1.81-2.57-3.86-2.57-6.28c0-1.65,0.42-3.2,1.24-4.59
				c0.82-1.39,1.99-2.5,3.48-3.29c1.49-0.8,3.19-1.21,5.04-1.21c1.72,0,3.27,0.34,4.63,1.02c1.12,0.56,2.08,1.32,2.86,2.28
				l-2.71,1.49c-0.67-0.63-1.34-1.09-2-1.36c-0.79-0.33-1.72-0.49-2.75-0.49c-1.91,0-3.49,0.59-4.68,1.74
				c-1.21,1.16-1.82,2.67-1.82,4.47c0,1.76,0.59,3.22,1.76,4.34c1.16,1.12,2.69,1.68,4.54,1.68c2.04,0,3.7-0.64,4.95-1.9l2.53,1.73
				C483.31,112.43,480.89,113.42,477.75,113.42z"/>
			<path class="st1" d="M492.36,92.89c-0.64,0-1.16-0.22-1.61-0.68c-0.45-0.46-0.67-1.01-0.67-1.68c0-0.63,0.22-1.15,0.66-1.6
				c0.44-0.45,0.97-0.66,1.59-0.66c0.63,0,1.15,0.22,1.6,0.68c0.45,0.46,0.67,1,0.67,1.65c0,0.64-0.22,1.18-0.66,1.63
				C493.48,92.67,492.97,92.89,492.36,92.89z"/>
			<rect x="490.69" y="95.87" class="st1" width="3.25" height="17.08"/>
			<path class="st1" d="M507.54,113.42c-2.48,0-4.54-0.86-6.29-2.62c-1.76-1.77-2.61-3.85-2.61-6.38c0-2.71,0.96-4.9,2.95-6.7
				c1.74-1.57,3.68-2.33,5.93-2.33c1.61,0,3.15,0.41,4.57,1.22c1.42,0.81,2.54,1.91,3.33,3.29c0.8,1.38,1.2,2.89,1.2,4.49
				c0,1.61-0.41,3.14-1.21,4.55c-0.8,1.4-1.9,2.51-3.28,3.3C510.75,113.02,509.2,113.42,507.54,113.42z M507.59,98.37
				c-1.63,0-3.01,0.58-4.09,1.71c-1.08,1.13-1.63,2.58-1.63,4.32c0,1.78,0.54,3.26,1.61,4.38c1.08,1.13,2.46,1.71,4.1,1.71
				c1.64,0,3.02-0.58,4.12-1.72c1.09-1.14,1.64-2.6,1.64-4.36c0-1.76-0.54-3.22-1.61-4.34C510.65,98.94,509.26,98.37,507.59,98.37z"
				/>
			<path class="st1" d="M550.89,113.42c-2.73,0-4.89-0.83-6.59-2.54c-1.7-1.71-2.53-3.79-2.53-6.38c0-2.65,0.83-4.79,2.53-6.53
				c1.7-1.74,3.77-2.58,6.34-2.58c2.74,0,4.9,0.85,6.6,2.58c1.68,1.72,2.54,4.04,2.54,6.89l0,0.19h-15.02l0.13,0.8
				c0.24,1.48,0.9,2.67,1.96,3.55c1.06,0.88,2.41,1.32,4.01,1.32c1.75,0,3.29-0.57,4.59-1.68l2.71,1.27
				c-0.79,0.95-1.71,1.68-2.73,2.18C554.17,113.11,552.65,113.42,550.89,113.42z M550.87,97.93c-1.44,0-2.72,0.41-3.81,1.22
				c-0.71,0.53-1.34,1.4-1.92,2.66l-0.45,0.98h12.04l-0.26-0.89c-0.35-1.18-1.05-2.14-2.07-2.88
				C553.39,98.3,552.2,97.93,550.87,97.93z"/>
			<path class="st1" d="M569.19,113.42c-2.29,0-4.11-0.8-5.54-2.44l1.95-2.12c0.47,0.45,1,0.83,1.57,1.13
				c0.84,0.45,1.58,0.67,2.27,0.67c0.77,0,1.41-0.2,1.9-0.59c0.68-0.54,0.82-1.14,0.82-1.56c0-1.01-0.78-1.89-2.4-2.7l-1.56-0.78
				c-2.76-1.39-4.1-3.04-4.1-5.03c0-1.27,0.48-2.33,1.47-3.23c1-0.92,2.26-1.37,3.85-1.37c1.09,0,2.12,0.24,3.08,0.72
				c0.78,0.39,1.48,0.93,2.07,1.6l-1.96,1.96c-1.12-0.98-2.16-1.46-3.16-1.46c-0.67,0-1.22,0.16-1.64,0.47
				c-0.47,0.35-0.72,0.83-0.72,1.38c0,0.42,0.16,0.81,0.45,1.15c0.17,0.19,0.51,0.48,1.59,1.02l1.69,0.85
				c1.68,0.83,2.84,1.67,3.43,2.49c0.58,0.8,0.87,1.72,0.87,2.82c0,1.45-0.52,2.63-1.58,3.6
				C572.5,112.93,571.03,113.42,569.19,113.42z"/>
		</g>
	</g>
	<line class="st2" x1="330.13" y1="118.63" x2="335.22" y2="65.05"/>
</g>
</svg>
